       <svg xmlns="http://www.w3.org/2000/svg" class ="img-icon" x="0px" y="0px"
                     width="64" height="64"
                     viewBox="0 0 172 172"
                     style=" fill:#000000;"><g transform="translate(7.138,7.138) scale(0.917,0.917)"><g fill="none" fill-rule="nonzero" stroke="none" stroke-width="none" stroke-linecap="butt" stroke-linejoin="none" stroke-miterlimit="10" stroke-dasharray="" stroke-dashoffset="0" font-family="none" font-weight="none" font-size="none" text-anchor="none" style="mix-blend-mode: normal"><g fill="#ffffff" stroke="#3498db" stroke-width="16" stroke-linejoin="round"><path d="M87.8275,10.32c9.32563,0 18.8125,18.00625 18.8125,30.96c0,5.56313 -3.49375,17.44188 -5.59,24.08h50.31c7.59219,0 13.76,6.16781 13.76,13.76c0,4.99875 -2.67406,9.41969 -6.665,11.825c2.01563,2.39188 3.225,5.44219 3.225,8.815c0,4.99875 -2.67406,9.41969 -6.665,11.825c2.01563,2.39188 3.225,5.44219 3.225,8.815c0,5.99313 -3.88344,11.12625 -9.245,13.0075c1.46469,2.19031 2.365,4.79719 2.365,7.6325c0,7.59219 -6.16781,13.76 -13.76,13.76h-65.36c-4.48812,0 -8.89562,-2.87562 -10.32,-6.88v-72.24l13.76,-35.26v-26.66c0,-1.89469 1.54531,-3.44 3.44,-3.44zM51.6,65.36c1.89469,0 3.44,1.54531 3.44,3.44v82.56c0,1.90813 -1.54531,3.44 -3.44,3.44h-30.96c-1.73344,0 -3.225,-1.29 -3.44,-3.01l-10.32,-82.56c-0.12094,-0.98094 0.20156,-1.94844 0.86,-2.6875c0.65844,-0.73906 1.59906,-1.1825 2.58,-1.1825zM34.4,135.88c0,2.84875 2.31125,5.16 5.16,5.16c2.84875,0 5.16,-2.31125 5.16,-5.16c0,-2.84875 -2.31125,-5.16 -5.16,-5.16c-2.84875,0 -5.16,2.31125 -5.16,5.16z"></path></g><path d="M0,172v-172h172v172z" fill="none" stroke="none" stroke-width="1" stroke-linejoin="miter"></path><path d="" fill="none" stroke="none" stroke-width="1" stroke-linejoin="miter"></path><g fill="#ffffff" stroke="none" stroke-width="1" stroke-linejoin="miter"><path d="M79.12,10.32c-1.89469,0 -3.44,1.54531 -3.44,3.44v26.66l-13.76,35.26v72.24c1.42438,4.00438 5.83188,6.88 10.32,6.88h65.36c7.59219,0 13.76,-6.16781 13.76,-13.76c0,-2.83531 -0.90031,-5.44219 -2.365,-7.6325c5.36156,-1.88125 9.245,-7.01437 9.245,-13.0075c0,-3.37281 -1.20937,-6.42312 -3.225,-8.815c3.99094,-2.40531 6.665,-6.82625 6.665,-11.825c0,-3.37281 -1.20937,-6.42312 -3.225,-8.815c3.99094,-2.40531 6.665,-6.82625 6.665,-11.825c0,-7.59219 -6.16781,-13.76 -13.76,-13.76h-50.31c2.09625,-6.63812 5.59,-18.51687 5.59,-24.08c0,-12.95375 -9.48687,-30.96 -18.8125,-30.96zM10.32,65.36c-0.98094,0 -1.92156,0.44344 -2.58,1.1825c-0.65844,0.73906 -0.98094,1.70656 -0.86,2.6875l10.32,82.56c0.215,1.72 1.70656,3.01 3.44,3.01h30.96c1.89469,0 3.44,-1.53187 3.44,-3.44v-82.56c0,-1.89469 -1.54531,-3.44 -3.44,-3.44zM39.56,130.72c2.84875,0 5.16,2.31125 5.16,5.16c0,2.84875 -2.31125,5.16 -5.16,5.16c-2.84875,0 -5.16,-2.31125 -5.16,-5.16c0,-2.84875 2.31125,-5.16 5.16,-5.16z"></path></g><path d="" fill="none" stroke="none" stroke-width="1" stroke-linejoin="miter"></path></g></g></svg>
      